<?xml version="1.0" standalone="no"?>
<!DOCTYPE svg PUBLIC "-//W3C//DTD SVG 20010904//EN"
 "http://www.w3.org/TR/2001/REC-SVG-20010904/DTD/svg10.dtd">
<svg version="1.0" xmlns="http://www.w3.org/2000/svg"
 width="1280.000000pt" height="1280.000000pt" viewBox="0 0 1280.000000 1280.000000"
 preserveAspectRatio="xMidYMid meet">
<metadata>
Created by potrace 1.11, written by Peter Selinger 2001-2013
</metadata>
<g transform="translate(0.000000,1280.000000) scale(0.100000,-0.100000)"
fill="#000000" stroke="none">
<path d="M3069 9996 c-2 -2 -24 -7 -49 -10 -25 -3 -97 -20 -160 -36 -63 -16
-124 -32 -135 -35 -102 -25 -341 -128 -460 -199 -60 -36 -128 -79 -135 -86 -3
-3 -18 -14 -35 -24 -57 -36 -180 -141 -260 -222 -96 -97 -107 -109 -170 -199
-27 -38 -52 -72 -55 -75 -3 -3 -12 -18 -20 -35 -8 -16 -17 -32 -20 -35 -6 -6
-84 -163 -85 -170 0 -3 -8 -24 -17 -45 -18 -44 -53 -154 -63 -200 -42 -192
-49 -267 -48 -490 1 -173 3 -216 18 -310 3 -16 8 -48 11 -70 12 -84 64 -261
109 -370 37 -92 131 -267 147 -273 4 -2 8 -8 8 -14 0 -14 105 -151 170 -222
94 -102 171 -172 320 -288 82 -63 155 -105 260 -151 19 -8 70 -31 112 -51 42
-20 80 -36 83 -36 4 0 34 -13 68 -29 34 -16 94 -44 132 -61 39 -18 82 -38 96
-46 14 -7 28 -11 31 -8 3 2 11 -2 18 -11 7 -8 17 -15 23 -15 8 0 113 -45 407
-177 30 -14 83 -38 116 -54 34 -16 64 -29 67 -29 3 0 34 -13 69 -29 67 -31
144 -65 218 -97 186 -79 430 -224 541 -322 108 -94 249 -252 249 -277 0 -5 11
-23 25 -41 14 -18 25 -35 25 -38 0 -3 11 -29 24 -58 34 -76 55 -137 62 -183 3
-22 8 -43 10 -47 14 -23 20 -250 10 -348 -6 -48 -16 -112 -23 -145 -2 -11 -6
-31 -9 -45 -9 -45 -58 -185 -67 -191 -5 -3 -9 -10 -9 -15 0 -24 -102 -211
-127 -234 -3 -3 -30 -33 -59 -67 -67 -79 -111 -123 -123 -123 -5 0 -9 -4 -9
-9 0 -5 -30 -32 -67 -60 -38 -28 -73 -55 -80 -61 -7 -5 -17 -10 -23 -10 -5 0
-10 -3 -10 -8 0 -4 -21 -18 -47 -31 -27 -14 -60 -33 -75 -44 -16 -10 -28 -15
-28 -11 0 3 -7 0 -16 -7 -9 -7 -21 -14 -28 -15 -6 -2 -45 -16 -86 -32 -98 -38
-254 -75 -380 -89 -70 -7 -380 -9 -380 -1 0 3 -7 5 -16 4 -14 -2 -106 13 -171
29 -13 3 -33 7 -45 10 -73 16 -213 70 -313 122 -137 71 -315 215 -393 318 -12
17 -34 45 -48 63 -14 17 -22 32 -18 32 4 0 0 8 -9 18 -25 27 -95 198 -102 249
-2 11 -6 31 -10 42 -3 12 -8 35 -11 51 -2 17 -6 45 -9 62 -3 18 -7 49 -10 68
-2 19 -8 58 -13 85 -5 28 -10 57 -10 65 0 8 -3 29 -7 45 -4 17 -8 41 -10 55
-2 14 -4 25 -5 25 -1 0 -3 14 -5 30 -7 57 -14 101 -20 127 l-7 25 -276 -1
-277 -1 0 -550 -1 -550 45 -60 c25 -33 104 -118 176 -190 137 -136 152 -150
225 -206 25 -18 47 -36 50 -39 3 -3 25 -19 50 -35 25 -17 51 -35 58 -42 6 -6
21 -15 32 -18 11 -3 20 -11 20 -16 0 -5 5 -9 10 -9 6 0 27 -11 48 -24 69 -43
233 -125 316 -157 44 -17 92 -36 106 -42 14 -5 30 -11 35 -12 6 -2 39 -13 75
-26 l65 -24 880 -3 880 -3 121 41 c67 22 139 47 160 57 22 9 41 17 44 18 3 1
37 16 75 34 39 18 79 37 90 42 11 5 43 22 70 39 28 17 61 36 75 43 14 6 30 15
35 20 18 14 117 77 121 77 5 0 23 13 129 93 17 12 42 34 58 49 15 14 27 24 27
21 0 -9 172 168 215 222 22 28 42 52 45 55 3 3 10 12 15 21 6 9 28 43 49 75
60 89 130 235 175 367 22 64 40 119 40 122 0 3 4 29 10 58 29 146 36 222 35
407 -1 197 -9 282 -39 412 -7 32 -11 58 -8 58 3 0 1 6 -5 13 -6 6 -14 30 -18
52 -13 74 -96 283 -149 379 -12 22 -31 57 -41 76 -11 19 -42 68 -69 109 -28
41 -54 81 -60 90 -5 8 -19 25 -30 37 -11 11 -27 32 -35 45 -17 26 -266 279
-320 325 -19 16 -51 40 -70 54 -19 13 -41 30 -48 37 -12 11 -123 89 -177 123
-87 56 -247 146 -340 193 -248 125 -405 188 -790 318 -296 101 -610 238 -733
320 -24 16 -45 29 -48 29 -2 0 -35 23 -72 51 -121 93 -222 206 -287 324 -33
58 -91 203 -101 250 -10 47 -16 81 -19 100 -2 11 -7 40 -10 65 -10 62 -11 282
-2 356 14 118 65 288 113 373 13 24 24 49 24 56 0 8 3 15 8 17 4 2 33 42 65
90 90 134 268 303 399 379 53 31 151 75 168 77 3 0 28 9 55 20 28 11 53 20 58
20 10 0 94 12 120 18 27 6 240 5 282 0 96 -14 125 -18 175 -28 30 -6 66 -12
80 -13 14 -2 26 -4 28 -5 1 -1 5 -3 10 -4 14 -3 87 -19 99 -22 35 -7 151 -49
171 -62 12 -8 22 -11 22 -8 0 9 90 -39 160 -85 97 -65 122 -100 169 -234 12
-33 25 -69 30 -80 5 -11 14 -33 19 -50 12 -34 107 -291 117 -317 6 -15 31 -16
262 -15 l256 2 1 563 c1 310 -2 566 -6 568 -10 7 -109 32 -139 36 -13 2 -28 6
-34 9 -5 3 -23 6 -39 7 -16 1 -35 7 -42 13 -8 6 -14 9 -14 6 0 -3 -26 1 -58 8
-33 8 -70 16 -83 19 -13 2 -69 14 -124 25 -55 12 -116 24 -135 27 -19 3 -51 9
-70 14 -19 5 -53 12 -75 15 -22 4 -49 9 -60 11 -11 2 -36 6 -55 9 -46 7 -83
14 -122 21 -18 3 -46 7 -63 9 -16 2 -30 4 -30 5 0 1 -18 4 -40 6 -22 3 -58 9
-80 14 -39 9 -1087 15 -1096 6z"/>
<path d="M8396 7743 c-1 -2 -35 -5 -75 -9 -41 -3 -83 -8 -95 -11 -11 -2 -28
-5 -36 -5 -8 0 -35 -5 -60 -10 -25 -5 -55 -12 -67 -14 -51 -9 -70 -14 -123
-29 -30 -9 -64 -19 -75 -22 -11 -2 -27 -7 -35 -10 -8 -2 -16 -4 -18 -3 -1 0
-16 -7 -32 -15 -16 -8 -33 -16 -37 -16 -21 -3 -155 -59 -212 -89 -31 -17 -62
-30 -68 -30 -7 0 -13 -4 -13 -8 0 -5 -15 -15 -32 -24 -71 -33 -269 -194 -337
-271 -9 -10 -33 -37 -53 -60 -21 -23 -38 -44 -38 -47 0 -3 -20 -32 -45 -65
-25 -33 -45 -63 -45 -68 0 -4 -10 -24 -23 -45 -37 -61 -91 -210 -103 -287 -3
-16 -8 -41 -11 -55 -6 -22 -8 -312 -3 -350 3 -17 27 -145 34 -175 16 -72 92
-253 139 -330 61 -101 199 -256 301 -340 21 -16 43 -35 49 -41 33 -29 153
-105 209 -132 122 -59 426 -192 440 -192 3 0 27 -10 54 -22 27 -12 54 -23 59
-24 6 -1 39 -15 75 -32 36 -17 126 -56 200 -87 74 -32 141 -61 150 -65 8 -5
60 -27 115 -51 55 -24 116 -53 136 -65 20 -13 40 -20 43 -17 3 4 6 1 6 -5 0
-7 4 -12 9 -12 14 0 127 -76 186 -124 233 -191 317 -343 301 -550 -4 -50 -8
-98 -9 -106 -7 -38 -41 -141 -48 -146 -5 -3 -9 -12 -9 -20 0 -8 -22 -50 -50
-92 -53 -82 -158 -191 -231 -238 -24 -16 -46 -32 -49 -35 -8 -10 -103 -56
-161 -79 -57 -21 -157 -47 -224 -58 -83 -13 -319 -6 -405 12 -101 21 -214 56
-218 68 -2 4 -10 8 -17 8 -15 0 -94 44 -163 92 -108 75 -247 242 -373 451
l-73 122 -2 125 c-1 69 -2 128 -3 131 -1 3 -106 6 -235 6 -205 0 -235 -2 -238
-16 -2 -9 -3 -317 -3 -686 l0 -670 214 -3 214 -2 29 29 c47 48 103 64 200 58
76 -5 118 -11 158 -22 8 -2 31 -7 50 -11 47 -8 45 -8 127 -32 70 -22 79 -22
788 -22 394 0 724 4 733 9 9 5 71 26 137 47 66 20 127 41 135 45 8 4 58 27
111 52 53 25 101 53 108 61 8 9 17 13 22 10 5 -3 9 0 9 6 0 6 11 15 25 20 14
5 25 14 25 19 0 5 9 13 21 16 31 10 228 212 274 280 22 33 46 66 53 73 6 7 12
19 12 27 0 7 3 15 8 17 10 4 52 90 52 106 0 6 5 12 11 12 5 0 8 3 6 8 -3 4 0
18 6 32 42 104 71 276 70 425 0 88 -12 260 -18 277 -3 7 -7 29 -10 48 -10 61
-12 74 -28 128 -9 29 -17 56 -18 60 -12 49 -61 169 -100 241 -83 154 -220 319
-354 426 -27 22 -52 42 -55 45 -7 7 -139 93 -183 119 -35 21 -155 83 -167 86
-3 1 -30 13 -61 27 -31 14 -96 40 -145 57 -49 18 -97 36 -106 41 -10 6 -23 10
-30 10 -6 0 -45 13 -87 30 -42 16 -139 52 -216 80 -77 28 -149 55 -160 60 -11
5 -49 21 -85 34 -109 41 -408 173 -425 187 -8 8 -37 32 -63 54 -27 22 -64 64
-83 94 -64 102 -83 173 -82 311 2 222 77 403 229 554 38 38 139 108 199 139
48 24 176 65 225 72 25 3 58 8 75 11 64 11 283 3 306 -12 3 -2 21 -6 40 -9 89
-15 257 -94 357 -170 101 -76 297 -301 359 -412 96 -174 89 -149 87 -287 0
-108 2 -126 15 -127 19 -1 443 -1 453 0 3 1 5 310 5 688 l-2 687 -208 1 -208
0 -30 -27 c-49 -45 -89 -61 -157 -63 -57 -2 -248 25 -269 38 -4 3 -24 8 -43
11 -41 7 -214 55 -250 69 -8 3 -46 15 -85 26 -60 16 -87 23 -150 37 -125 27
-210 37 -308 38 -65 1 -120 0 -121 -1z"/>
</g>
</svg>
